<?xml version="1.0" encoding="UTF-8"?>
<svg width="32" height="32" viewBox="0 0 32 32" version="1.1" xmlns="http://www.w3.org/2000/svg">
    <rect x="2" y="2" width="28" height="28" rx="6" ry="6" fill="white"/>
    <path d="M16 4 C18 4, 20 5, 21.5 7 C23 9, 23 11.5, 21.5 13.5 C20 15.5, 18 16.5, 16 16.5 C14 16.5, 12 15.5, 10.5 13.5 C9 11.5, 9 9, 10.5 7 C12 5, 14 4, 16 4 Z" 
          transform="rotate(0 16 16)"
          fill="currentColor"/>
    <path d="M16 4 C18 4, 20 5, 21.5 7 C23 9, 23 11.5, 21.5 13.5 C20 15.5, 18 16.5, 16 16.5 C14 16.5, 12 15.5, 10.5 13.5 C9 11.5, 9 9, 10.5 7 C12 5, 14 4, 16 4 Z" 
          transform="rotate(120 16 16)"
          fill="currentColor"/>
    <path d="M16 4 C18 4, 20 5, 21.5 7 C23 9, 23 11.5, 21.5 13.5 C20 15.5, 18 16.5, 16 16.5 C14 16.5, 12 15.5, 10.5 13.5 C9 11.5, 9 9, 10.5 7 C12 5, 14 4, 16 4 Z" 
          transform="rotate(240 16 16)"
          fill="currentColor"/>
</svg>
