<?xml version="1.0" encoding="UTF-8"?>
<svg version="1.1" xmlns="http://www.w3.org/2000/svg" width="633" height="124">
<path d="M0 0 C1.51731115 2.18230554 2.19757036 4.14531558 2.953125 6.6953125 C3.3346875 7.67886719 3.71625 8.66242187 4.109375 9.67578125 C8.77891117 23.13224865 8.48627177 37.29490569 3.92578125 50.71484375 C1.93820467 56.80528925 1.99290672 60.8828265 3.453125 67.1328125 C6.66117997 82.61275187 3.81196513 97.27143905 -3.671875 111.1328125 C-5.50842321 113.62058572 -6.45168371 114.53588626 -9.453125 115.33984375 C-12.43445133 115.45549865 -15.10285744 115.17699077 -18.046875 114.6953125 C-19.49320313 114.46908203 -19.49320313 114.46908203 -20.96875 114.23828125 C-36.02031677 111.15231187 -49.02176166 102.02963407 -58.046875 89.6953125 C-58.046875 89.0353125 -58.046875 88.3753125 -58.046875 87.6953125 C-58.92085937 87.67404297 -58.92085937 87.67404297 -59.8125 87.65234375 C-73.28259455 86.86870617 -85.41104546 80.06725415 -94.44482422 70.16259766 C-105.20953702 57.30640932 -105.20953702 57.30640932 -104.9296875 51.09375 C-103.27863556 46.60814871 -100.12045374 43.29046824 -97.046875 39.6953125 C-96.54285156 39.08300781 -96.03882812 38.47070312 -95.51953125 37.83984375 C-87.69623856 29.14066079 -74.98189972 22.55916049 -63.33984375 21.43359375 C-55.73121189 20.61420263 -52.73151412 17.86945409 -47.62890625 12.30078125 C-38.21727075 2.80371487 -13.11617601 -8.36031066 0 0 Z M-39.796875 28.52734375 C-42.09701685 31.15370764 -44.10761151 33.78641726 -46.046875 36.6953125 C-48.91856274 37.14327206 -51.65762221 37.4340839 -54.546875 37.6328125 C-67.18208055 38.79505708 -75.95605607 42.60449357 -85.046875 51.6953125 C-84.62804972 56.19070381 -81.79554432 58.61503071 -78.66796875 61.59765625 C-71.38415907 67.42687503 -63.90833684 70.79171135 -54.609375 71.4453125 C-48.65523756 72.04205233 -48.65523756 72.04205233 -45.9296875 74.96875 C-44.79084721 76.88431086 -43.70366096 78.83144847 -42.66796875 80.8046875 C-38.12106518 88.91241916 -29.75118977 93.95213451 -21.046875 96.6953125 C-18.3275603 96.86343234 -18.3275603 96.86343234 -16.046875 96.6953125 C-11.44440173 84.88896803 -10.95694932 75.83896848 -15.046875 63.6953125 C-15.71066992 62.29811121 -16.37705356 60.90213469 -17.046875 59.5078125 C-18.046875 55.6953125 -18.046875 55.6953125 -17.2265625 53.7421875 C-16.3340781 52.38475614 -15.41173128 51.04662018 -14.46484375 49.7265625 C-10.20082404 43.6183249 -9.78156308 37.24770212 -9.734375 30.0078125 C-9.72881592 29.28279541 -9.72325684 28.55777832 -9.7175293 27.81079102 C-9.77662537 23.40990163 -10.43033316 19.78497016 -12.046875 15.6953125 C-22.63188098 15.16135077 -32.62741138 21.02181153 -39.796875 28.52734375 Z " fill="#000000" transform="translate(109.046875,6.3046875)"/>
<path d="M0 0 C34.80636605 0 34.80636605 0 41.05859375 4.47265625 C45.23600937 9.28910995 46.41675386 13.64208058 46 20 C45.15743334 24.68906665 43.97448199 27.99987375 40.625 31.4375 C38.13090636 32.92207955 35.70034175 33.9568914 33 35 C36.81028578 42.18724495 40.8627313 49.19556088 45.10327148 56.13500977 C48 60.8983119 48 60.8983119 48 62 C43.05 62 38.1 62 33 62 C30.82827844 58.04436429 28.66243074 54.08570994 26.5 50.125 C25.87996094 48.99707031 25.25992188 47.86914062 24.62109375 46.70703125 C24.03457031 45.63066406 23.44804687 44.55429688 22.84375 43.4453125 C22.29912109 42.45031738 21.75449219 41.45532227 21.19335938 40.43017578 C20 38 20 38 20 36 C17.36 36 14.72 36 12 36 C12 44.58 12 53.16 12 62 C8.04 62 4.08 62 0 62 C0 41.54 0 21.08 0 0 Z M12 10 C12 15.28 12 20.56 12 26 C22.48458741 26.64721854 22.48458741 26.64721854 32 23 C33.56430248 19.87139505 33.35627284 17.44397075 33 14 C30.90609059 11.68976077 29.23311331 10.20383861 26.08886719 9.68408203 C23.93723682 9.60669617 21.83879835 9.65080722 19.6875 9.75 C17.150625 9.8325 14.61375 9.915 12 10 Z " fill="#000000" transform="translate(145,36)"/>
<path d="M0 0 C1.9375 1.5 1.9375 1.5 2.9375 2.5 C3.2675 1.18 3.5975 -0.14 3.9375 -1.5 C7.5675 -1.5 11.1975 -1.5 14.9375 -1.5 C15.03696345 4.86795586 15.10924892 11.23545162 15.15722656 17.60400391 C15.1772439 19.76684454 15.2044663 21.92963173 15.23925781 24.09228516 C15.28821247 27.21530406 15.31056817 30.3376026 15.328125 33.4609375 C15.34877014 34.41551849 15.36941528 35.37009949 15.39068604 36.35360718 C15.39331685 44.36644824 13.74345655 51.360001 8.3125 57.4375 C-0.59422941 62.8805013 -9.23421307 63.45262541 -19.25 61.3125 C-24.27528202 59.99106048 -26.9378774 58.62896558 -30.0625 54.5 C-28.0825 51.86 -26.1025 49.22 -24.0625 46.5 C-23.4025 46.768125 -22.7425 47.03625 -22.0625 47.3125 C-21.0725 47.704375 -20.0825 48.09625 -19.0625 48.5 C-18.45792969 48.77585938 -17.85335938 49.05171875 -17.23046875 49.3359375 C-12.02135291 51.57575457 -8.59629331 51.95148677 -3.0625 50.5 C-0.10412339 48.42284195 1.57517229 46.96012659 2.4609375 43.390625 C2.71721058 41.43740852 2.83746193 39.46741529 2.9375 37.5 C1.8546875 38.49 1.8546875 38.49 0.75 39.5 C-4.27700225 42.84337442 -10.30170185 42.18312643 -16.0625 41.5 C-21.57001918 40.01314578 -25.08757474 37.14988032 -28.09375 32.3359375 C-31.67497599 25.54893664 -31.58198335 18.88174813 -30.0625 11.5 C-27.38756206 5.1276575 -23.2968769 0.83180225 -16.875 -1.8125 C-10.92733701 -2.88502939 -5.47463553 -2.68145414 0 0 Z M-16.0625 10.5 C-19.29264356 14.04273809 -19.6314765 17.64211538 -19.4921875 22.27734375 C-18.75637346 26.08350909 -16.83795759 27.85670706 -14.0625 30.5 C-10.57806578 32.24221711 -6.86362955 32.08675154 -3.0625 31.5 C0.01219523 29.79748281 2.34363254 27.68773492 3.9375 24.5 C4.49568953 19.92467596 4.28774011 16.3375307 2.5 12.0625 C-3.0766756 6.4858244 -9.58645862 6.48485434 -16.0625 10.5 Z " fill="#000000" transform="translate(432.0625,56.5)"/>
<path d="M0 0 C5.15411325 -0.59700154 9.86018499 -0.8495562 15 0 C18.44681511 2.75745209 20.07081482 6.0833301 22 10 C23.09037986 11.86230766 24.1939864 13.71695255 25.3125 15.5625 C26.01826172 16.80193359 26.01826172 16.80193359 26.73828125 18.06640625 C27.85947811 20.14001846 27.85947811 20.14001846 30 21 C30.24363281 20.34644531 30.48726562 19.69289063 30.73828125 19.01953125 C36.6964178 4.76058525 36.6964178 4.76058525 42 0 C46.8869697 -1.85648181 51.97489395 -0.96482036 57 0 C50.86887407 9.8011661 44.43598051 19.39758688 38 29 C40.98198149 34.43478641 44.32893688 39.46332888 47.9375 44.5 C48.44990234 45.22058594 48.96230469 45.94117188 49.49023438 46.68359375 C52.46641032 50.86967468 52.46641032 50.86967468 55.49267578 55.01953125 C59 59.793149 59 59.793149 59 62 C53.78747308 63.59702952 48.96317108 64.58484614 44 62 C37.60627652 55.09992795 33.29351998 46.30540713 29 38 C26.42453524 41.08912424 24.30267066 44.06462492 22.4765625 47.64453125 C15.24059783 60.97803275 15.24059783 60.97803275 11.07519531 62.87792969 C6.93844537 63.64141694 3.03343251 63.02029136 -1 62 C0.31339073 58.39633939 1.89544364 55.46895604 4.1171875 52.34765625 C5.02791016 51.05891602 5.02791016 51.05891602 5.95703125 49.74414062 C6.58996094 48.85919922 7.22289062 47.97425781 7.875 47.0625 C9.71546502 44.4687725 11.55449714 41.8741724 13.38574219 39.27392578 C14.36425697 37.89554001 15.35615599 36.52635056 16.37207031 35.17529297 C18.4638957 32.3487203 18.4638957 32.3487203 18.96484375 28.9609375 C17.68429534 26.35836543 16.19605708 24.02438967 14.5625 21.625 C13.85222656 20.57957031 13.14195312 19.53414062 12.41015625 18.45703125 C9.38026902 14.08390668 6.28021346 9.75977011 3.15063477 5.45751953 C0 1.10461193 0 1.10461193 0 0 Z " fill="#000000" transform="translate(564,36)"/>
<path d="M0 0 C4.46904392 3.92403856 7.25763559 7.37811016 8.5625 13.25 C8.5625 16.88 8.5625 20.51 8.5625 24.25 C-1.6675 24.25 -11.8975 24.25 -22.4375 24.25 C-20.1677674 29.94727058 -20.1677674 29.94727058 -17.5234375 31.6328125 C-13.21164645 32.90858588 -8.52471855 32.29998571 -4.51953125 30.28515625 C-2.70132795 29.10444954 -2.70132795 29.10444954 -0.4375 27.25 C1.8725 28.9 4.1825 30.55 6.5625 32.25 C5.5625 36.25 5.5625 36.25 3.85546875 37.69921875 C3.16066406 38.10785156 2.46585937 38.51648438 1.75 38.9375 C1.06292969 39.35386719 0.37585938 39.77023438 -0.33203125 40.19921875 C-6.02829727 43.04206765 -12.83704328 43.2949275 -18.9140625 41.53125 C-25.61618069 38.75177624 -30.09583347 34.76624972 -33.4375 28.25 C-35.31682364 21.94643529 -35.19685252 15.24385801 -32.6015625 9.16796875 C-29.05222872 3.31990537 -23.39657567 -0.56016664 -16.8671875 -2.37890625 C-10.84307512 -3.29898772 -5.43356495 -2.76617852 0 0 Z M-21.4375 10.25 C-21.7675 11.9 -22.0975 13.55 -22.4375 15.25 C-15.8375 15.25 -9.2375 15.25 -2.4375 15.25 C-3.87791222 9.65425736 -3.87791222 9.65425736 -6.0625 7.375 C-11.95548094 4.58358798 -17.14775629 5.44028735 -21.4375 10.25 Z " fill="#000000" transform="translate(291.4375,56.75)"/>
<path d="M0 0 C3.9601302 3.39439731 6.29245094 6.58490188 8.625 11.25 C9.12 17.685 9.12 17.685 9.625 24.25 C-0.935 24.25 -11.495 24.25 -22.375 24.25 C-19.18283688 29.85526619 -19.18283688 29.85526619 -14.375 32.25 C-9.01530778 32.94909029 -6.69543167 31.25551768 -2.375 28.25 C2.92979934 28.25 3.81482627 29.7862057 7.625 33.25 C3.93136089 38.50633259 -0.1488575 40.92253943 -6.375 42.25 C-13.32354338 43.07463258 -19.3161707 41.76802992 -25.375 38.25 C-30.12673076 34.11550437 -33.01323209 29.5353574 -33.7109375 23.19921875 C-33.7922685 16.40808011 -33.78812992 10.69203381 -29.375 5.25 C-21.30396597 -2.73175268 -10.35721218 -5.37040632 0 0 Z M-20.375 9.25 C-21.035 11.23 -21.695 13.21 -22.375 15.25 C-15.775 15.25 -9.175 15.25 -2.375 15.25 C-2.90263234 10.36249172 -2.90263234 10.36249172 -5.5 7.9375 C-10.73279279 4.86607814 -15.76503736 5.29860345 -20.375 9.25 Z " fill="#000000" transform="translate(493.375,56.75)"/>
<path d="M0 0 C5.07067919 4.28702877 8.23211791 8.7866709 8.9375 15.55078125 C9.21610696 22.31860869 7.54902441 27.47045559 4.03125 33.203125 C-0.75069173 37.85582506 -7.18109526 40.56243007 -13.84375 40.765625 C-20.31138571 40.67120696 -26.21797613 39.12399602 -31.171875 34.8046875 C-36.76766548 28.58412429 -37.7536443 22.93458887 -37.5859375 14.6796875 C-37.06432861 9.15598307 -35.45273616 5.60059029 -31.515625 1.70703125 C-22.35475942 -5.81281313 -9.90855881 -7.06593948 0 0 Z M-22.28125 8.453125 C-25.10782232 11.72599821 -26.19004625 13.7104659 -26.71875 18.015625 C-26.09016572 22.95450149 -24.04124109 26.24918893 -20.28125 29.453125 C-15.76452284 30.8898744 -12.2333008 30.87625869 -7.90625 28.953125 C-4.74589628 25.94326432 -3.50711802 23.63549823 -2.28125 19.453125 C-2.45663863 15.06840929 -3.51107973 11.86966834 -6.28125 8.453125 C-12.71866627 5.119463 -16.04371749 4.63422754 -22.28125 8.453125 Z " fill="#000000" transform="translate(238.28125,58.546875)"/>
<path d="M0 0 C4.15419444 3.75855687 5.46925228 7.66825059 5.96557617 13.10717773 C5.9420105 15.06312866 5.9420105 15.06312866 5.91796875 17.05859375 C5.91372391 17.75896255 5.90947906 18.45933136 5.90510559 19.18092346 C5.88847156 21.39186 5.8508518 23.60184457 5.8125 25.8125 C5.79743326 27.32225235 5.78374836 28.83201916 5.77148438 30.34179688 C5.73861921 34.01983434 5.68694582 37.69732407 5.625 41.375 C1.995 41.375 -1.635 41.375 -5.375 41.375 C-5.41238281 39.65152344 -5.44976563 37.92804688 -5.48828125 36.15234375 C-5.55395937 33.87237474 -5.62040607 31.59242778 -5.6875 29.3125 C-5.71005859 28.17876953 -5.73261719 27.04503906 -5.75585938 25.87695312 C-5.9538349 19.70371642 -6.23843 14.77051093 -9.375 9.375 C-11.70833333 8.04166667 -11.70833333 8.04166667 -14.375 8.375 C-18.08761227 10.12613525 -18.08761227 10.12613525 -20.375 13.375 C-20.52941209 15.47874996 -20.62492639 17.58695119 -20.69140625 19.6953125 C-20.73330078 20.95214844 -20.77519531 22.20898438 -20.81835938 23.50390625 C-20.85767578 24.82261719 -20.89699219 26.14132813 -20.9375 27.5 C-20.98069512 28.83985751 -21.02430973 30.17970156 -21.06835938 31.51953125 C-21.17470981 34.80457815 -21.27673808 38.08970281 -21.375 41.375 C-25.335 41.375 -29.295 41.375 -33.375 41.375 C-33.375 27.185 -33.375 12.995 -33.375 -1.625 C-29.745 -1.625 -26.115 -1.625 -22.375 -1.625 C-22.045 -0.305 -21.715 1.015 -21.375 2.375 C-20.6325 1.735625 -19.89 1.09625 -19.125 0.4375 C-13.20614457 -4.00164157 -6.43467255 -3.09817567 0 0 Z " fill="#000000" transform="translate(548.375,56.625)"/>
<path d="M0 0 C2.86662544 2.29471248 4.82507094 4.53765895 6.0859375 7.95703125 C6.25404853 10.60414726 6.31899346 13.14134659 6.28125 15.78515625 C6.2784201 16.53416199 6.27559021 17.28316772 6.27267456 18.05487061 C6.2615101 20.43908901 6.23641281 22.82292704 6.2109375 25.20703125 C6.20090285 26.82681748 6.19177785 28.44660961 6.18359375 30.06640625 C6.16158305 34.03009371 6.12707925 37.99349806 6.0859375 41.95703125 C2.4559375 41.95703125 -1.1740625 41.95703125 -4.9140625 41.95703125 C-4.93388184 41.12977539 -4.95370117 40.30251953 -4.97412109 39.45019531 C-5.06937462 35.70215319 -5.17905359 31.95466808 -5.2890625 28.20703125 C-5.32 26.90507813 -5.3509375 25.603125 -5.3828125 24.26171875 C-5.42148437 23.01132813 -5.46015625 21.7609375 -5.5 20.47265625 C-5.54713135 18.74450684 -5.54713135 18.74450684 -5.59521484 16.98144531 C-5.90084699 14.08238632 -6.28713496 12.35303889 -7.9140625 9.95703125 C-10.8500981 8.84609886 -12.54529528 8.87127143 -15.6015625 9.58203125 C-18.60405533 11.36729726 -18.87561773 12.6578836 -19.9140625 15.95703125 C-20.27591477 18.95038206 -20.27591477 18.95038206 -20.328125 22.1328125 C-20.38613281 23.86821289 -20.38613281 23.86821289 -20.4453125 25.63867188 C-20.49171875 27.43594727 -20.49171875 27.43594727 -20.5390625 29.26953125 C-20.59707031 31.09581055 -20.59707031 31.09581055 -20.65625 32.95898438 C-20.75034252 35.95818353 -20.83598459 38.95737948 -20.9140625 41.95703125 C-24.5440625 41.95703125 -28.1740625 41.95703125 -31.9140625 41.95703125 C-31.9140625 27.76703125 -31.9140625 13.57703125 -31.9140625 -1.04296875 C-28.2840625 -1.04296875 -24.6540625 -1.04296875 -20.9140625 -1.04296875 C-20.5840625 -0.05296875 -20.2540625 0.93703125 -19.9140625 1.95703125 C-19.0478125 1.24546875 -19.0478125 1.24546875 -18.1640625 0.51953125 C-13.00681493 -3.06189067 -5.4955655 -2.99452242 0 0 Z " fill="#000000" transform="translate(344.9140625,56.04296875)"/>
<path d="M0 0 C3.63 0 7.26 0 11 0 C11 3.96 11 7.92 11 12 C14.96 12 18.92 12 23 12 C23 15.3 23 18.6 23 22 C19.04 22 15.08 22 11 22 C11.14037638 25.45863518 11.2870459 28.91680137 11.4375 32.375 C11.47681641 33.35984375 11.51613281 34.3446875 11.55664062 35.359375 C11.59853516 36.30039063 11.64042969 37.24140625 11.68359375 38.2109375 C11.72025146 39.08024902 11.75690918 39.94956055 11.79467773 40.84521484 C11.87401544 43.0483262 11.87401544 43.0483262 13 45 C16.3 45 19.6 45 23 45 C23 48.3 23 51.6 23 55 C17.01172617 56.49706846 11.4480081 56.84567553 5.5625 54.8125 C2.63125151 52.7391779 1.57282011 51.21095056 0 48 C-0.34057617 45.0456543 -0.34057617 45.0456543 -0.29296875 41.82421875 C-0.28330078 40.66728516 -0.27363281 39.51035156 -0.26367188 38.31835938 C-0.23853516 37.12017578 -0.21339844 35.92199219 -0.1875 34.6875 C-0.16719727 32.8612207 -0.16719727 32.8612207 -0.14648438 30.99804688 C-0.11119261 27.99824655 -0.06188481 24.99935025 0 22 C-2.97 22 -5.94 22 -9 22 C-9 18.7 -9 15.4 -9 12 C-6.03 12 -3.06 12 0 12 C0 8.04 0 4.08 0 0 Z " fill="#000000" transform="translate(370,43)"/>
</svg>
