<svg width="1418" height="488" viewBox="0 0 1418 488" fill="none" xmlns="http://www.w3.org/2000/svg">
<g opacity="0.3">
<path d="M92.4004 189.711H334.717" stroke="white" stroke-width="2" stroke-miterlimit="10"/>
<circle cx="343.219" cy="189.709" r="7.50233" stroke="white" stroke-width="2"/>
<path d="M219.936 319.369V213.09H334.717" stroke="white" stroke-width="2" stroke-miterlimit="10"/>
<circle cx="343.207" cy="213.088" r="7.50233" stroke="white" stroke-width="2"/>
<path d="M285.828 446.904V340.625H334.716" stroke="white" stroke-width="2" stroke-miterlimit="10"/>
<circle cx="343.207" cy="340.623" r="7.50233" stroke="white" stroke-width="2"/>
<path d="M285.828 189.706V293.859H334.716" stroke="white" stroke-width="2" stroke-miterlimit="10"/>
<circle cx="8.50233" cy="8.50233" r="7.50233" transform="matrix(1 0 0 -1 334.717 302.363)" stroke="white" stroke-width="2"/>
<path d="M86.0243 66.6953L1249.71 66.6953L1249.71 108.665" stroke="white" stroke-width="2" stroke-miterlimit="10"/>
<circle cx="1382.63" cy="119.565" r="8.50233" fill="white"/>
<path d="M92.4004 319.371H334.717" stroke="white" stroke-width="2" stroke-miterlimit="10"/>
<circle cx="343.219" cy="319.37" r="7.50233" stroke="white" stroke-width="2"/>
<path d="M1013.31 319.371H1400.16" stroke="white" stroke-width="2" stroke-miterlimit="10"/>
<circle cx="1408.67" cy="319.37" r="8.50233" fill="white"/>
<path d="M92.4004 446.906H334.717" stroke="white" stroke-width="2" stroke-miterlimit="10"/>
<circle cx="343.219" cy="446.905" r="7.50233" stroke="white" stroke-width="2"/>
<path d="M1030.31 446.906H1179.1" stroke="white" stroke-width="2" stroke-miterlimit="10"/>
<circle cx="1187.6" cy="446.905" r="7.50233" stroke="white" stroke-width="2"/>
</g>
<path fill-rule="evenodd" clip-rule="evenodd" d="M1 41H47.4049V92.014H1V41ZM1314.82 147.274H1223.99V238.106H1314.82V147.274ZM989.036 296.068H376.105V347.082H989.036V296.068ZM1223.99 395.968H1314.82V486.8H1223.99V395.968ZM376.105 168.535H989.036V219.549H376.105V168.535ZM989.036 423.604H376.105V474.618H989.036V423.604ZM47.4049 168.535H1V219.549H47.4049V168.535ZM1 296.07H47.4049V347.084H1V296.07ZM47.4049 423.604H1V474.618H47.4049V423.604Z" fill="url(#paint0_linear_1454_79553)" style="mix-blend-mode:color"/>
<path d="M47.4049 41H47.9049V40.5H47.4049V41ZM1 41V40.5H0.5V41H1ZM47.4049 92.014V92.514H47.9049V92.014H47.4049ZM1 92.014H0.5V92.514H1V92.014ZM1223.99 147.274V146.774H1223.49V147.274H1223.99ZM1314.82 147.274H1315.32V146.774H1314.82V147.274ZM1223.99 238.106H1223.49V238.606H1223.99V238.106ZM1314.82 238.106V238.606H1315.32V238.106H1314.82ZM376.105 296.068V295.568H375.605V296.068H376.105ZM989.036 296.068H989.536V295.568H989.036V296.068ZM376.105 347.082H375.605V347.582H376.105V347.082ZM989.036 347.082V347.582H989.536V347.082H989.036ZM1314.82 395.968H1315.32V395.468H1314.82V395.968ZM1223.99 395.968V395.468H1223.49V395.968H1223.99ZM1314.82 486.8V487.3H1315.32V486.8H1314.82ZM1223.99 486.8H1223.49V487.3H1223.99V486.8ZM989.036 168.535H989.536V168.035H989.036V168.535ZM376.105 168.535V168.035H375.605V168.535H376.105ZM989.036 219.549V220.049H989.536V219.549H989.036ZM376.105 219.549H375.605V220.049H376.105V219.549ZM376.105 423.604V423.104H375.605V423.604H376.105ZM989.036 423.604H989.536V423.104H989.036V423.604ZM376.105 474.618H375.605V475.118H376.105V474.618ZM989.036 474.618V475.118H989.536V474.618H989.036ZM1 168.535V168.035H0.5V168.535H1ZM47.4049 168.535H47.9049V168.035H47.4049V168.535ZM1 219.549H0.5V220.049H1V219.549ZM47.4049 219.549V220.049H47.9049V219.549H47.4049ZM47.4049 296.07H47.9049V295.57H47.4049V296.07ZM1 296.07V295.57H0.5V296.07H1ZM47.4049 347.084V347.584H47.9049V347.084H47.4049ZM1 347.084H0.5V347.584H1V347.084ZM1 423.604V423.104H0.5V423.604H1ZM47.4049 423.604H47.9049V423.104H47.4049V423.604ZM1 474.618H0.5V475.118H1V474.618ZM47.4049 474.618V475.118H47.9049V474.618H47.4049ZM47.4049 40.5H1V41.5H47.4049V40.5ZM47.9049 92.014V41H46.9049V92.014H47.9049ZM1 92.514H47.4049V91.514H1V92.514ZM0.5 41V92.014H1.5V41H0.5ZM1223.99 147.774H1314.82V146.774H1223.99V147.774ZM1224.49 238.106V147.274H1223.49V238.106H1224.49ZM1314.82 237.606H1223.99V238.606H1314.82V237.606ZM1314.32 147.274V238.106H1315.32V147.274H1314.32ZM376.105 296.568H989.036V295.568H376.105V296.568ZM376.605 347.082V296.068H375.605V347.082H376.605ZM989.036 346.582H376.105V347.582H989.036V346.582ZM988.536 296.068V347.082H989.536V296.068H988.536ZM1314.82 395.468H1223.99V396.468H1314.82V395.468ZM1315.32 486.8V395.968H1314.32V486.8H1315.32ZM1223.99 487.3H1314.82V486.3H1223.99V487.3ZM1223.49 395.968V486.8H1224.49V395.968H1223.49ZM989.036 168.035H376.105V169.035H989.036V168.035ZM989.536 219.549V168.535H988.536V219.549H989.536ZM376.105 220.049H989.036V219.049H376.105V220.049ZM375.605 168.535V219.549H376.605V168.535H375.605ZM376.105 424.104H989.036V423.104H376.105V424.104ZM376.605 474.618V423.604H375.605V474.618H376.605ZM989.036 474.118H376.105V475.118H989.036V474.118ZM988.536 423.604V474.618H989.536V423.604H988.536ZM1 169.035H47.4049V168.035H1V169.035ZM1.5 219.549V168.535H0.5V219.549H1.5ZM47.4049 219.049H1V220.049H47.4049V219.049ZM46.9049 168.535V219.549H47.9049V168.535H46.9049ZM47.4049 295.57H1V296.57H47.4049V295.57ZM47.9049 347.084V296.07H46.9049V347.084H47.9049ZM1 347.584H47.4049V346.584H1V347.584ZM0.5 296.07V347.084H1.5V296.07H0.5ZM1 424.104H47.4049V423.104H1V424.104ZM1.5 474.618V423.604H0.5V474.618H1.5ZM47.4049 474.118H1V475.118H47.4049V474.118ZM46.9049 423.604V474.618H47.9049V423.604H46.9049Z" fill="url(#paint1_linear_1454_79553)" fill-opacity="0.6"/>
<path opacity="0.6" d="M57.4049 31H57.9049V30.5H57.4049V31ZM11 31V30.5H10.5V31H11ZM57.4049 82.014V82.514H57.9049V82.014H57.4049ZM11 82.014H10.5V82.514H11V82.014ZM1233.99 137.274V136.774H1233.49V137.274H1233.99ZM1324.82 137.274H1325.32V136.774H1324.82V137.274ZM1233.99 228.106H1233.49V228.606H1233.99V228.106ZM1324.82 228.106V228.606H1325.32V228.106H1324.82ZM386.105 286.068V285.568H385.605V286.068H386.105ZM999.036 286.068H999.536V285.568H999.036V286.068ZM386.105 337.082H385.605V337.582H386.105V337.082ZM999.036 337.082V337.582H999.536V337.082H999.036ZM1324.82 385.968H1325.32V385.468H1324.82V385.968ZM1233.99 385.968V385.468H1233.49V385.968H1233.99ZM1324.82 476.8V477.3H1325.32V476.8H1324.82ZM1233.99 476.8H1233.49V477.3H1233.99V476.8ZM999.036 158.535H999.536V158.035H999.036V158.535ZM386.105 158.535V158.035H385.605V158.535H386.105ZM999.036 209.549V210.049H999.536V209.549H999.036ZM386.105 209.549H385.605V210.049H386.105V209.549ZM386.105 413.604V413.104H385.605V413.604H386.105ZM999.036 413.604H999.536V413.104H999.036V413.604ZM386.105 464.618H385.605V465.118H386.105V464.618ZM999.036 464.618V465.118H999.536V464.618H999.036ZM11 158.535V158.035H10.5V158.535H11ZM57.4049 158.535H57.9049V158.035H57.4049V158.535ZM11 209.549H10.5V210.049H11V209.549ZM57.4049 209.549V210.049H57.9049V209.549H57.4049ZM57.4049 286.07H57.9049V285.57H57.4049V286.07ZM11 286.07V285.57H10.5V286.07H11ZM57.4049 337.084V337.584H57.9049V337.084H57.4049ZM11 337.084H10.5V337.584H11V337.084ZM11 413.604V413.104H10.5V413.604H11ZM57.4049 413.604H57.9049V413.104H57.4049V413.604ZM11 464.618H10.5V465.118H11V464.618ZM57.4049 464.618V465.118H57.9049V464.618H57.4049ZM57.4049 30.5H11V31.5H57.4049V30.5ZM57.9049 82.014V31H56.9049V82.014H57.9049ZM11 82.514H57.4049V81.514H11V82.514ZM10.5 31V82.014H11.5V31H10.5ZM1233.99 137.774H1324.82V136.774H1233.99V137.774ZM1234.49 228.106V137.274H1233.49V228.106H1234.49ZM1324.82 227.606H1233.99V228.606H1324.82V227.606ZM1324.32 137.274V228.106H1325.32V137.274H1324.32ZM386.105 286.568H999.036V285.568H386.105V286.568ZM386.605 337.082V286.068H385.605V337.082H386.605ZM999.036 336.582H386.105V337.582H999.036V336.582ZM998.536 286.068V337.082H999.536V286.068H998.536ZM1324.82 385.468H1233.99V386.468H1324.82V385.468ZM1325.32 476.8V385.968H1324.32V476.8H1325.32ZM1233.99 477.3H1324.82V476.3H1233.99V477.3ZM1233.49 385.968V476.8H1234.49V385.968H1233.49ZM999.036 158.035H386.105V159.035H999.036V158.035ZM999.536 209.549V158.535H998.536V209.549H999.536ZM386.105 210.049H999.036V209.049H386.105V210.049ZM385.605 158.535V209.549H386.605V158.535H385.605ZM386.105 414.104H999.036V413.104H386.105V414.104ZM386.605 464.618V413.604H385.605V464.618H386.605ZM999.036 464.118H386.105V465.118H999.036V464.118ZM998.536 413.604V464.618H999.536V413.604H998.536ZM11 159.035H57.4049V158.035H11V159.035ZM11.5 209.549V158.535H10.5V209.549H11.5ZM57.4049 209.049H11V210.049H57.4049V209.049ZM56.9049 158.535V209.549H57.9049V158.535H56.9049ZM57.4049 285.57H11V286.57H57.4049V285.57ZM57.9049 337.084V286.07H56.9049V337.084H57.9049ZM11 337.584H57.4049V336.584H11V337.584ZM10.5 286.07V337.084H11.5V286.07H10.5ZM11 414.104H57.4049V413.104H11V414.104ZM11.5 464.618V413.604H10.5V464.618H11.5ZM57.4049 464.118H11V465.118H57.4049V464.118ZM56.9049 413.604V464.618H57.9049V413.604H56.9049Z" fill="url(#paint2_linear_1454_79553)" fill-opacity="0.6"/>
<path opacity="0.3" d="M67.4049 21H67.9049V20.5H67.4049V21ZM21 21V20.5H20.5V21H21ZM67.4049 72.014V72.514H67.9049V72.014H67.4049ZM21 72.014H20.5V72.514H21V72.014ZM1243.99 127.274V126.774H1243.49V127.274H1243.99ZM1334.82 127.274H1335.32V126.774H1334.82V127.274ZM1243.99 218.106H1243.49V218.606H1243.99V218.106ZM1334.82 218.106V218.606H1335.32V218.106H1334.82ZM396.105 276.068V275.568H395.605V276.068H396.105ZM1009.04 276.068H1009.54V275.568H1009.04V276.068ZM396.105 327.082H395.605V327.582H396.105V327.082ZM1009.04 327.082V327.582H1009.54V327.082H1009.04ZM1334.82 375.968H1335.32V375.468H1334.82V375.968ZM1243.99 375.968V375.468H1243.49V375.968H1243.99ZM1334.82 466.8V467.3H1335.32V466.8H1334.82ZM1243.99 466.8H1243.49V467.3H1243.99V466.8ZM1009.04 148.535H1009.54V148.035H1009.04V148.535ZM396.105 148.535V148.035H395.605V148.535H396.105ZM1009.04 199.549V200.049H1009.54V199.549H1009.04ZM396.105 199.549H395.605V200.049H396.105V199.549ZM396.105 403.604V403.104H395.605V403.604H396.105ZM1009.04 403.604H1009.54V403.104H1009.04V403.604ZM396.105 454.618H395.605V455.118H396.105V454.618ZM1009.04 454.618V455.118H1009.54V454.618H1009.04ZM21 148.535V148.035H20.5V148.535H21ZM67.4049 148.535H67.9049V148.035H67.4049V148.535ZM21 199.549H20.5V200.049H21V199.549ZM67.4049 199.549V200.049H67.9049V199.549H67.4049ZM67.4049 276.07H67.9049V275.57H67.4049V276.07ZM21 276.07V275.57H20.5V276.07H21ZM67.4049 327.084V327.584H67.9049V327.084H67.4049ZM21 327.084H20.5V327.584H21V327.084ZM21 403.604V403.104H20.5V403.604H21ZM67.4049 403.604H67.9049V403.104H67.4049V403.604ZM21 454.618H20.5V455.118H21V454.618ZM67.4049 454.618V455.118H67.9049V454.618H67.4049ZM67.4049 20.5H21V21.5H67.4049V20.5ZM67.9049 72.014V21H66.9049V72.014H67.9049ZM21 72.514H67.4049V71.514H21V72.514ZM20.5 21V72.014H21.5V21H20.5ZM1243.99 127.774H1334.82V126.774H1243.99V127.774ZM1244.49 218.106V127.274H1243.49V218.106H1244.49ZM1334.82 217.606H1243.99V218.606H1334.82V217.606ZM1334.32 127.274V218.106H1335.32V127.274H1334.32ZM396.105 276.568H1009.04V275.568H396.105V276.568ZM396.605 327.082V276.068H395.605V327.082H396.605ZM1009.04 326.582H396.105V327.582H1009.04V326.582ZM1008.54 276.068V327.082H1009.54V276.068H1008.54ZM1334.82 375.468H1243.99V376.468H1334.82V375.468ZM1335.32 466.8V375.968H1334.32V466.8H1335.32ZM1243.99 467.3H1334.82V466.3H1243.99V467.3ZM1243.49 375.968V466.8H1244.49V375.968H1243.49ZM1009.04 148.035H396.105V149.035H1009.04V148.035ZM1009.54 199.549V148.535H1008.54V199.549H1009.54ZM396.105 200.049H1009.04V199.049H396.105V200.049ZM395.605 148.535V199.549H396.605V148.535H395.605ZM396.105 404.104H1009.04V403.104H396.105V404.104ZM396.605 454.618V403.604H395.605V454.618H396.605ZM1009.04 454.118H396.105V455.118H1009.04V454.118ZM1008.54 403.604V454.618H1009.54V403.604H1008.54ZM21 149.035H67.4049V148.035H21V149.035ZM21.5 199.549V148.535H20.5V199.549H21.5ZM67.4049 199.049H21V200.049H67.4049V199.049ZM66.9049 148.535V199.549H67.9049V148.535H66.9049ZM67.4049 275.57H21V276.57H67.4049V275.57ZM67.9049 327.084V276.07H66.9049V327.084H67.9049ZM21 327.584H67.4049V326.584H21V327.584ZM20.5 276.07V327.084H21.5V276.07H20.5ZM21 404.104H67.4049V403.104H21V404.104ZM21.5 454.618V403.604H20.5V454.618H21.5ZM67.4049 454.118H21V455.118H67.4049V454.118ZM66.9049 403.604V454.618H67.9049V403.604H66.9049Z" fill="url(#paint3_linear_1454_79553)" fill-opacity="0.6"/>
<path opacity="0.2" d="M77.4049 11H77.9049V10.5H77.4049V11ZM31 11V10.5H30.5V11H31ZM77.4049 62.014V62.514H77.9049V62.014H77.4049ZM31 62.014H30.5V62.514H31V62.014ZM1253.99 117.274V116.774H1253.49V117.274H1253.99ZM1344.82 117.274H1345.32V116.774H1344.82V117.274ZM1253.99 208.106H1253.49V208.606H1253.99V208.106ZM1344.82 208.106V208.606H1345.32V208.106H1344.82ZM406.105 266.068V265.568H405.605V266.068H406.105ZM1019.04 266.068H1019.54V265.568H1019.04V266.068ZM406.105 317.082H405.605V317.582H406.105V317.082ZM1019.04 317.082V317.582H1019.54V317.082H1019.04ZM1344.82 365.968H1345.32V365.468H1344.82V365.968ZM1253.99 365.968V365.468H1253.49V365.968H1253.99ZM1344.82 456.8V457.3H1345.32V456.8H1344.82ZM1253.99 456.8H1253.49V457.3H1253.99V456.8ZM1019.04 138.535H1019.54V138.035H1019.04V138.535ZM406.105 138.535V138.035H405.605V138.535H406.105ZM1019.04 189.549V190.049H1019.54V189.549H1019.04ZM406.105 189.549H405.605V190.049H406.105V189.549ZM406.105 393.604V393.104H405.605V393.604H406.105ZM1019.04 393.604H1019.54V393.104H1019.04V393.604ZM406.105 444.618H405.605V445.118H406.105V444.618ZM1019.04 444.618V445.118H1019.54V444.618H1019.04ZM31 138.535V138.035H30.5V138.535H31ZM77.4049 138.535H77.9049V138.035H77.4049V138.535ZM31 189.549H30.5V190.049H31V189.549ZM77.4049 189.549V190.049H77.9049V189.549H77.4049ZM77.4049 266.07H77.9049V265.57H77.4049V266.07ZM31 266.07V265.57H30.5V266.07H31ZM77.4049 317.084V317.584H77.9049V317.084H77.4049ZM31 317.084H30.5V317.584H31V317.084ZM31 393.604V393.104H30.5V393.604H31ZM77.4049 393.604H77.9049V393.104H77.4049V393.604ZM31 444.618H30.5V445.118H31V444.618ZM77.4049 444.618V445.118H77.9049V444.618H77.4049ZM77.4049 10.5H31V11.5H77.4049V10.5ZM77.9049 62.014V11H76.9049V62.014H77.9049ZM31 62.514H77.4049V61.514H31V62.514ZM30.5 11V62.014H31.5V11H30.5ZM1253.99 117.774H1344.82V116.774H1253.99V117.774ZM1254.49 208.106V117.274H1253.49V208.106H1254.49ZM1344.82 207.606H1253.99V208.606H1344.82V207.606ZM1344.32 117.274V208.106H1345.32V117.274H1344.32ZM406.105 266.568H1019.04V265.568H406.105V266.568ZM406.605 317.082V266.068H405.605V317.082H406.605ZM1019.04 316.582H406.105V317.582H1019.04V316.582ZM1018.54 266.068V317.082H1019.54V266.068H1018.54ZM1344.82 365.468H1253.99V366.468H1344.82V365.468ZM1345.32 456.8V365.968H1344.32V456.8H1345.32ZM1253.99 457.3H1344.82V456.3H1253.99V457.3ZM1253.49 365.968V456.8H1254.49V365.968H1253.49ZM1019.04 138.035H406.105V139.035H1019.04V138.035ZM1019.54 189.549V138.535H1018.54V189.549H1019.54ZM406.105 190.049H1019.04V189.049H406.105V190.049ZM405.605 138.535V189.549H406.605V138.535H405.605ZM406.105 394.104H1019.04V393.104H406.105V394.104ZM406.605 444.618V393.604H405.605V444.618H406.605ZM1019.04 444.118H406.105V445.118H1019.04V444.118ZM1018.54 393.604V444.618H1019.54V393.604H1018.54ZM31 139.035H77.4049V138.035H31V139.035ZM31.5 189.549V138.535H30.5V189.549H31.5ZM77.4049 189.049H31V190.049H77.4049V189.049ZM76.9049 138.535V189.549H77.9049V138.535H76.9049ZM77.4049 265.57H31V266.57H77.4049V265.57ZM77.9049 317.084V266.07H76.9049V317.084H77.9049ZM31 317.584H77.4049V316.584H31V317.584ZM30.5 266.07V317.084H31.5V266.07H30.5ZM31 394.104H77.4049V393.104H31V394.104ZM31.5 444.618V393.604H30.5V444.618H31.5ZM77.4049 444.118H31V445.118H77.4049V444.118ZM76.9049 393.604V444.618H77.9049V393.604H76.9049Z" fill="url(#paint4_linear_1454_79553)" fill-opacity="0.6"/>
<path opacity="0.1" d="M87.4049 1H87.9049V0.5H87.4049V1ZM41 1V0.5H40.5V1H41ZM87.4049 52.014V52.514H87.9049V52.014H87.4049ZM41 52.014H40.5V52.514H41V52.014ZM1263.99 107.274V106.774H1263.49V107.274H1263.99ZM1354.82 107.274H1355.32V106.774H1354.82V107.274ZM1263.99 198.106H1263.49V198.606H1263.99V198.106ZM1354.82 198.106V198.606H1355.32V198.106H1354.82ZM416.105 256.068V255.568H415.605V256.068H416.105ZM1029.04 256.068H1029.54V255.568H1029.04V256.068ZM416.105 307.082H415.605V307.582H416.105V307.082ZM1029.04 307.082V307.582H1029.54V307.082H1029.04ZM1354.82 355.968H1355.32V355.468H1354.82V355.968ZM1263.99 355.968V355.468H1263.49V355.968H1263.99ZM1354.82 446.8V447.3H1355.32V446.8H1354.82ZM1263.99 446.8H1263.49V447.3H1263.99V446.8ZM1029.04 128.535H1029.54V128.035H1029.04V128.535ZM416.105 128.535V128.035H415.605V128.535H416.105ZM1029.04 179.549V180.049H1029.54V179.549H1029.04ZM416.105 179.549H415.605V180.049H416.105V179.549ZM416.105 383.604V383.104H415.605V383.604H416.105ZM1029.04 383.604H1029.54V383.104H1029.04V383.604ZM416.105 434.618H415.605V435.118H416.105V434.618ZM1029.04 434.618V435.118H1029.54V434.618H1029.04ZM41 128.535V128.035H40.5V128.535H41ZM87.4049 128.535H87.9049V128.035H87.4049V128.535ZM41 179.549H40.5V180.049H41V179.549ZM87.4049 179.549V180.049H87.9049V179.549H87.4049ZM87.4049 256.07H87.9049V255.57H87.4049V256.07ZM41 256.07V255.57H40.5V256.07H41ZM87.4049 307.084V307.584H87.9049V307.084H87.4049ZM41 307.084H40.5V307.584H41V307.084ZM41 383.604V383.104H40.5V383.604H41ZM87.4049 383.604H87.9049V383.104H87.4049V383.604ZM41 434.618H40.5V435.118H41V434.618ZM87.4049 434.618V435.118H87.9049V434.618H87.4049ZM87.4049 0.5H41V1.5H87.4049V0.5ZM87.9049 52.014V1H86.9049V52.014H87.9049ZM41 52.514H87.4049V51.514H41V52.514ZM40.5 1V52.014H41.5V1H40.5ZM1263.99 107.774H1354.82V106.774H1263.99V107.774ZM1264.49 198.106V107.274H1263.49V198.106H1264.49ZM1354.82 197.606H1263.99V198.606H1354.82V197.606ZM1354.32 107.274V198.106H1355.32V107.274H1354.32ZM416.105 256.568H1029.04V255.568H416.105V256.568ZM416.605 307.082V256.068H415.605V307.082H416.605ZM1029.04 306.582H416.105V307.582H1029.04V306.582ZM1028.54 256.068V307.082H1029.54V256.068H1028.54ZM1354.82 355.468H1263.99V356.468H1354.82V355.468ZM1355.32 446.8V355.968H1354.32V446.8H1355.32ZM1263.99 447.3H1354.82V446.3H1263.99V447.3ZM1263.49 355.968V446.8H1264.49V355.968H1263.49ZM1029.04 128.035H416.105V129.035H1029.04V128.035ZM1029.54 179.549V128.535H1028.54V179.549H1029.54ZM416.105 180.049H1029.04V179.049H416.105V180.049ZM415.605 128.535V179.549H416.605V128.535H415.605ZM416.105 384.104H1029.04V383.104H416.105V384.104ZM416.605 434.618V383.604H415.605V434.618H416.605ZM1029.04 434.118H416.105V435.118H1029.04V434.118ZM1028.54 383.604V434.618H1029.54V383.604H1028.54ZM41 129.035H87.4049V128.035H41V129.035ZM41.5 179.549V128.535H40.5V179.549H41.5ZM87.4049 179.049H41V180.049H87.4049V179.049ZM86.9049 128.535V179.549H87.9049V128.535H86.9049ZM87.4049 255.57H41V256.57H87.4049V255.57ZM87.9049 307.084V256.07H86.9049V307.084H87.9049ZM41 307.584H87.4049V306.584H41V307.584ZM40.5 256.07V307.084H41.5V256.07H40.5ZM41 384.104H87.4049V383.104H41V384.104ZM41.5 434.618V383.604H40.5V434.618H41.5ZM87.4049 434.118H41V435.118H87.4049V434.118ZM86.9049 383.604V434.618H87.9049V383.604H86.9049Z" fill="url(#paint5_linear_1454_79553)" fill-opacity="0.6"/>
<defs>
<linearGradient id="paint0_linear_1454_79553" x1="1327.59" y1="-48.7866" x2="498.38" y2="-345.801" gradientUnits="userSpaceOnUse">
<stop stop-color="#787BE3"/>
<stop offset="1" stop-color="#9A54FF" stop-opacity="0.11"/>
</linearGradient>
<linearGradient id="paint1_linear_1454_79553" x1="657.91" y1="41" x2="657.91" y2="486.8" gradientUnits="userSpaceOnUse">
<stop stop-color="white" stop-opacity="0.5"/>
<stop offset="1" stop-color="white"/>
</linearGradient>
<linearGradient id="paint2_linear_1454_79553" x1="667.91" y1="31" x2="667.91" y2="476.8" gradientUnits="userSpaceOnUse">
<stop stop-color="white" stop-opacity="0.5"/>
<stop offset="1" stop-color="white"/>
</linearGradient>
<linearGradient id="paint3_linear_1454_79553" x1="677.91" y1="21" x2="677.91" y2="466.8" gradientUnits="userSpaceOnUse">
<stop stop-color="white" stop-opacity="0.5"/>
<stop offset="1" stop-color="white"/>
</linearGradient>
<linearGradient id="paint4_linear_1454_79553" x1="687.91" y1="11" x2="687.91" y2="456.8" gradientUnits="userSpaceOnUse">
<stop stop-color="white" stop-opacity="0.5"/>
<stop offset="1" stop-color="white"/>
</linearGradient>
<linearGradient id="paint5_linear_1454_79553" x1="697.91" y1="1" x2="697.91" y2="446.8" gradientUnits="userSpaceOnUse">
<stop stop-color="white" stop-opacity="0.5"/>
<stop offset="1" stop-color="white"/>
</linearGradient>
</defs>
</svg>
