<?xml version="1.0" encoding="utf-8"?>
<!-- Generator: Adobe Illustrator 28.2.0, SVG Export Plug-In . SVG Version: 6.00 Build 0)  -->
<svg version="1.1" id="Layer_1" xmlns="http://www.w3.org/2000/svg" xmlns:xlink="http://www.w3.org/1999/xlink" x="0px" y="0px"
	 viewBox="0 0 1418 376.9" style="enable-background:new 0 0 1418 376.9;" xml:space="preserve">
<style type="text/css">
	.st0{opacity:0.3;}
	.st1{fill:none;stroke:#FFFFFF;stroke-width:2;stroke-miterlimit:10;}
	.st2{fill:none;stroke:#FFFFFF;stroke-width:2;}
	.st3{fill:#FFFFFF;}
	.st4{fill-rule:evenodd;clip-rule:evenodd;fill:url(#SVGID_1_);}
	.st5{fill:url(#SVGID_00000039839200963911315030000015357630752995903616_);fill-opacity:0.6;}
	
		.st6{opacity:0.6;fill:url(#SVGID_00000025442008480320061940000004805885969677443468_);fill-opacity:0.6;enable-background:new    ;}
	
		.st7{opacity:0.3;fill:url(#SVGID_00000080928820778853613380000005644352700953770943_);fill-opacity:0.6;enable-background:new    ;}
	
		.st8{opacity:0.2;fill:url(#SVGID_00000114781063452915976250000003736059981158590370_);fill-opacity:0.6;enable-background:new    ;}
	
		.st9{opacity:0.1;fill:url(#SVGID_00000062178707175979961980000007374465103614423687_);fill-opacity:0.6;enable-background:new    ;}
</style>
<g class="st0">
	<path class="st1" d="M92.4,78.6h242.3"/>
	<circle class="st2" cx="343.2" cy="78.6" r="7.5"/>
	<path class="st1" d="M219.9,208.3V102h114.8"/>
	<circle class="st2" cx="343.2" cy="102" r="7.5"/>
	<path class="st1" d="M285.8,335.8V229.6h48.9"/>
	<circle class="st2" cx="343.2" cy="229.6" r="7.5"/>
	<path class="st1" d="M285.8,78.6v104.2h48.9"/>
	<circle class="st2" cx="343.2" cy="182.8" r="7.5"/>
	<circle class="st3" cx="1382.6" cy="8.5" r="8.5"/>
	<path class="st1" d="M92.4,208.3h242.3"/>
	<circle class="st2" cx="343.2" cy="208.3" r="7.5"/>
	<path class="st1" d="M1013.3,208.3h386.9"/>
	<circle class="st3" cx="1408.7" cy="208.3" r="8.5"/>
	<path class="st1" d="M92.4,335.8h242.3"/>
	<circle class="st2" cx="343.2" cy="335.8" r="7.5"/>
	<path class="st1" d="M1030.3,335.8h148.8"/>
	<circle class="st2" cx="1187.6" cy="335.8" r="7.5"/>
</g>
<linearGradient id="SVGID_1_" gradientUnits="userSpaceOnUse" x1="1142.1599" y1="-105.462" x2="338.6572" y2="182.3444" gradientTransform="matrix(1 0 0 -1 0 267.8746)">
	<stop  offset="0" style="stop-color:#787BE3"/>
	<stop  offset="1" style="stop-color:#9A54FF;stop-opacity:0.11"/>
</linearGradient>
<path class="st4" d="M1314.8,36.2H1224V127h90.8V36.2z M989,185H376.1v51H989V185z M1224,284.9h90.8v90.8H1224V284.9z M376.1,57.5
	H989v51H376.1V57.5z M989,312.5H376.1v51H989V312.5z M47.4,57.5H1v51h46.4V57.5z M1,185h46.4v51H1V185z M47.4,312.5H1v51h46.4V312.5
	z"/>
<linearGradient id="SVGID_00000084516845519889348610000006475571027380065453_" gradientUnits="userSpaceOnUse" x1="657.91" y1="231.7823" x2="657.91" y2="-107.9816" gradientTransform="matrix(1 0 0 -1 0 267.8746)">
	<stop  offset="0" style="stop-color:#FFFFFF;stop-opacity:0.5"/>
	<stop  offset="1" style="stop-color:#FFFFFF"/>
</linearGradient>
<path style="fill:url(#SVGID_00000084516845519889348610000006475571027380065453_);fill-opacity:0.6;" d="M1224,36.2v-0.5h-0.5v0.5
	H1224z M1314.8,36.2h0.5v-0.5h-0.5V36.2z M1224,127h-0.5v0.5h0.5V127z M1314.8,127v0.5h0.5V127H1314.8z M376.1,185v-0.5h-0.5v0.5
	H376.1z M989,185h0.5v-0.5H989V185z M376.1,236h-0.5v0.5h0.5V236z M989,236v0.5h0.5V236H989z M1314.8,284.9h0.5v-0.5h-0.5V284.9z
	 M1224,284.9v-0.5h-0.5v0.5H1224z M1314.8,375.7v0.5h0.5v-0.5H1314.8z M1224,375.7h-0.5v0.5h0.5V375.7z M989,57.5h0.5V57H989V57.5z
	 M376.1,57.5V57h-0.5v0.5H376.1z M989,108.5v0.5h0.5v-0.5H989z M376.1,108.5h-0.5v0.5h0.5V108.5z M376.1,312.5V312h-0.5v0.5H376.1z
	 M989,312.5h0.5V312H989V312.5z M376.1,363.6h-0.5v0.5h0.5V363.6z M989,363.6v0.5h0.5v-0.5H989z M1,57.5V57H0.5v0.5H1z M47.4,57.5
	h0.5V57h-0.5V57.5z M1,108.5H0.5v0.5H1V108.5z M47.4,108.5v0.5h0.5v-0.5H47.4z M47.4,185h0.5v-0.5h-0.5V185z M1,185v-0.5H0.5v0.5H1z
	 M47.4,236v0.5h0.5V236H47.4z M1,236H0.5v0.5H1V236z M1,312.5V312H0.5v0.5H1z M47.4,312.5h0.5V312h-0.5V312.5z M1,363.6H0.5v0.5H1
	V363.6z M47.4,363.6v0.5h0.5v-0.5H47.4z M1224,36.7h90.8v-1H1224V36.7z M1224.5,127V36.2h-1V127H1224.5z M1314.8,126.5H1224v1h90.8
	V126.5z M1314.3,36.2V127h1V36.2H1314.3z M376.1,185.5H989v-1H376.1V185.5z M376.6,236v-51h-1v51H376.6z M989,235.5H376.1v1H989
	V235.5z M988.5,185v51h1v-51H988.5z M1314.8,284.4H1224v1h90.8V284.4z M1315.3,375.7v-90.8h-1v90.8H1315.3z M1224,376.2h90.8v-1
	H1224V376.2z M1223.5,284.9v90.8h1v-90.8H1223.5z M989,57H376.1v1H989V57z M989.5,108.5v-51h-1v51H989.5z M376.1,109H989v-1H376.1
	V109z M375.6,57.5v51h1v-51H375.6z M376.1,313H989v-1H376.1V313z M376.6,363.6v-51h-1v51H376.6z M989,363.1H376.1v1H989V363.1z
	 M988.5,312.5v51h1v-51H988.5z M1,58h46.4v-1H1V58z M1.5,108.5v-51h-1v51H1.5z M47.4,108H1v1h46.4V108z M46.9,57.5v51h1v-51H46.9z
	 M47.4,184.5H1v1h46.4V184.5z M47.9,236v-51h-1v51H47.9z M1,236.5h46.4v-1H1V236.5z M0.5,185v51h1v-51H0.5z M1,313h46.4v-1H1V313z
	 M1.5,363.6v-51h-1v51H1.5z M47.4,363.1H1v1h46.4V363.1z M46.9,312.5v51h1v-51H46.9z"/>
<linearGradient id="SVGID_00000062154534803075533950000012567810637647794108_" gradientUnits="userSpaceOnUse" x1="667.91" y1="241.7823" x2="667.91" y2="-97.9816" gradientTransform="matrix(1 0 0 -1 0 267.8746)">
	<stop  offset="0" style="stop-color:#FFFFFF;stop-opacity:0.5"/>
	<stop  offset="1" style="stop-color:#FFFFFF"/>
</linearGradient>
<path style="opacity:0.6;fill:url(#SVGID_00000062154534803075533950000012567810637647794108_);fill-opacity:0.6;enable-background:new    ;" d="
	M1234,26.2v-0.5h-0.5v0.5H1234z M1324.8,26.2h0.5v-0.5h-0.5V26.2z M1234,117h-0.5v0.5h0.5V117z M1324.8,117v0.5h0.5V117H1324.8z
	 M386.1,175v-0.5h-0.5v0.5H386.1z M999,175h0.5v-0.5H999V175z M386.1,226h-0.5v0.5h0.5V226z M999,226v0.5h0.5V226H999z
	 M1324.8,274.9h0.5v-0.5h-0.5V274.9z M1234,274.9v-0.5h-0.5v0.5H1234z M1324.8,365.7v0.5h0.5v-0.5H1324.8z M1234,365.7h-0.5v0.5h0.5
	V365.7z M999,47.5h0.5V47H999V47.5z M386.1,47.5V47h-0.5v0.5H386.1z M999,98.5V99h0.5v-0.5H999z M386.1,98.5h-0.5V99h0.5V98.5z
	 M386.1,302.5V302h-0.5v0.5H386.1z M999,302.5h0.5V302H999V302.5z M386.1,353.6h-0.5v0.5h0.5V353.6z M999,353.6v0.5h0.5v-0.5H999z
	 M11,47.5V47h-0.5v0.5H11z M57.4,47.5h0.5V47h-0.5V47.5z M11,98.5h-0.5V99H11V98.5z M57.4,98.5V99h0.5v-0.5H57.4z M57.4,175h0.5
	v-0.5h-0.5V175z M11,175v-0.5h-0.5v0.5H11z M57.4,226v0.5h0.5V226H57.4z M11,226h-0.5v0.5H11V226z M11,302.5V302h-0.5v0.5H11z
	 M57.4,302.5h0.5V302h-0.5V302.5z M11,353.6h-0.5v0.5H11V353.6z M57.4,353.6v0.5h0.5v-0.5H57.4z M1234,26.7h90.8v-1H1234V26.7z
	 M1234.5,117V26.2h-1V117H1234.5z M1324.8,116.5H1234v1h90.8V116.5z M1324.3,26.2V117h1V26.2H1324.3z M386.1,175.5H999v-1H386.1
	V175.5z M386.6,226v-51h-1v51H386.6z M999,225.5H386.1v1H999V225.5z M998.5,175v51h1v-51H998.5z M1324.8,274.4H1234v1h90.8V274.4z
	 M1325.3,365.7v-90.8h-1v90.8H1325.3z M1234,366.2h90.8v-1H1234V366.2z M1233.5,274.9v90.8h1v-90.8H1233.5z M999,47H386.1v1H999V47z
	 M999.5,98.5v-51h-1v51H999.5z M386.1,99H999v-1H386.1V99z M385.6,47.5v51h1v-51H385.6z M386.1,303H999v-1H386.1V303z M386.6,353.6
	v-51h-1v51H386.6z M999,353.1H386.1v1H999V353.1z M998.5,302.5v51h1v-51H998.5z M11,48h46.4v-1H11V48z M11.5,98.5v-51h-1v51H11.5z
	 M57.4,98H11v1h46.4V98z M56.9,47.5v51h1v-51H56.9z M57.4,174.5H11v1h46.4V174.5z M57.9,226v-51h-1v51H57.9z M11,226.5h46.4v-1H11
	V226.5z M10.5,175v51h1v-51H10.5z M11,303h46.4v-1H11V303z M11.5,353.6v-51h-1v51H11.5z M57.4,353.1H11v1h46.4V353.1z M56.9,302.5
	v51h1v-51H56.9z"/>
<linearGradient id="SVGID_00000180342580061219583830000005972987913196859820_" gradientUnits="userSpaceOnUse" x1="677.91" y1="251.7823" x2="677.91" y2="-87.9816" gradientTransform="matrix(1 0 0 -1 0 267.8746)">
	<stop  offset="0" style="stop-color:#FFFFFF;stop-opacity:0.5"/>
	<stop  offset="1" style="stop-color:#FFFFFF"/>
</linearGradient>
<path style="opacity:0.3;fill:url(#SVGID_00000180342580061219583830000005972987913196859820_);fill-opacity:0.6;enable-background:new    ;" d="
	M1244,16.2v-0.5h-0.5v0.5H1244z M1334.8,16.2h0.5v-0.5h-0.5V16.2z M1244,107h-0.5v0.5h0.5V107z M1334.8,107v0.5h0.5V107H1334.8z
	 M396.1,165v-0.5h-0.5v0.5H396.1z M1009,165h0.5v-0.5h-0.5V165z M396.1,216h-0.5v0.5h0.5V216z M1009,216v0.5h0.5V216H1009z
	 M1334.8,264.9h0.5v-0.5h-0.5V264.9z M1244,264.9v-0.5h-0.5v0.5H1244z M1334.8,355.7v0.5h0.5v-0.5H1334.8z M1244,355.7h-0.5v0.5h0.5
	V355.7z M1009,37.5h0.5V37h-0.5V37.5z M396.1,37.5V37h-0.5v0.5H396.1z M1009,88.5V89h0.5v-0.5H1009z M396.1,88.5h-0.5V89h0.5V88.5z
	 M396.1,292.5V292h-0.5v0.5H396.1z M1009,292.5h0.5V292h-0.5V292.5z M396.1,343.6h-0.5v0.5h0.5V343.6z M1009,343.6v0.5h0.5v-0.5
	H1009z M21,37.5V37h-0.5v0.5H21z M67.4,37.5h0.5V37h-0.5V37.5z M21,88.5h-0.5V89H21V88.5z M67.4,88.5V89h0.5v-0.5H67.4z M67.4,165
	h0.5v-0.5h-0.5V165z M21,165v-0.5h-0.5v0.5H21z M67.4,216v0.5h0.5V216H67.4z M21,216h-0.5v0.5H21V216z M21,292.5V292h-0.5v0.5H21z
	 M67.4,292.5h0.5V292h-0.5V292.5z M21,343.6h-0.5v0.5H21V343.6z M67.4,343.6v0.5h0.5v-0.5H67.4z M1244,16.7h90.8v-1H1244V16.7z
	 M1244.5,107V16.2h-1V107H1244.5z M1334.8,106.5H1244v1h90.8V106.5z M1334.3,16.2V107h1V16.2H1334.3z M396.1,165.5H1009v-1H396.1
	V165.5z M396.6,216v-51h-1v51H396.6z M1009,215.5H396.1v1H1009V215.5z M1008.5,165v51h1v-51H1008.5z M1334.8,264.4H1244v1h90.8
	V264.4z M1335.3,355.7v-90.8h-1v90.8H1335.3z M1244,356.2h90.8v-1H1244V356.2z M1243.5,264.9v90.8h1v-90.8H1243.5z M1009,37H396.1v1
	H1009V37z M1009.5,88.5v-51h-1v51H1009.5z M396.1,89H1009v-1H396.1V89z M395.6,37.5v51h1v-51H395.6z M396.1,293H1009v-1H396.1V293z
	 M396.6,343.6v-51h-1v51H396.6z M1009,343.1H396.1v1H1009V343.1z M1008.5,292.5v51h1v-51H1008.5z M21,38h46.4v-1H21V38z M21.5,88.5
	v-51h-1v51H21.5z M67.4,88H21v1h46.4V88z M66.9,37.5v51h1v-51H66.9z M67.4,164.5H21v1h46.4V164.5z M67.9,216v-51h-1v51H67.9z
	 M21,216.5h46.4v-1H21V216.5z M20.5,165v51h1v-51H20.5z M21,293h46.4v-1H21V293z M21.5,343.6v-51h-1v51H21.5z M67.4,343.1H21v1h46.4
	V343.1z M66.9,292.5v51h1v-51H66.9z"/>
<linearGradient id="SVGID_00000101820068913907844420000003907426109436522381_" gradientUnits="userSpaceOnUse" x1="687.91" y1="261.7823" x2="687.91" y2="-77.9816" gradientTransform="matrix(1 0 0 -1 0 267.8746)">
	<stop  offset="0" style="stop-color:#FFFFFF;stop-opacity:0.5"/>
	<stop  offset="1" style="stop-color:#FFFFFF"/>
</linearGradient>
<path style="opacity:0.2;fill:url(#SVGID_00000101820068913907844420000003907426109436522381_);fill-opacity:0.6;enable-background:new    ;" d="
	M1254,6.2V5.7h-0.5v0.5H1254z M1344.8,6.2h0.5V5.7h-0.5V6.2z M1254,97h-0.5v0.5h0.5V97z M1344.8,97v0.5h0.5V97H1344.8z M406.1,155
	v-0.5h-0.5v0.5H406.1z M1019,155h0.5v-0.5h-0.5V155z M406.1,206h-0.5v0.5h0.5V206z M1019,206v0.5h0.5V206H1019z M1344.8,254.9h0.5
	v-0.5h-0.5V254.9z M1254,254.9v-0.5h-0.5v0.5H1254z M1344.8,345.7v0.5h0.5v-0.5H1344.8z M1254,345.7h-0.5v0.5h0.5V345.7z M1019,27.5
	h0.5V27h-0.5V27.5z M406.1,27.5V27h-0.5v0.5H406.1z M1019,78.5V79h0.5v-0.5H1019z M406.1,78.5h-0.5V79h0.5V78.5z M406.1,282.5V282
	h-0.5v0.5H406.1z M1019,282.5h0.5V282h-0.5V282.5z M406.1,333.6h-0.5v0.5h0.5V333.6z M1019,333.6v0.5h0.5v-0.5H1019z M31,27.5V27
	h-0.5v0.5H31z M77.4,27.5h0.5V27h-0.5V27.5z M31,78.5h-0.5V79H31V78.5z M77.4,78.5V79h0.5v-0.5H77.4z M77.4,155h0.5v-0.5h-0.5V155z
	 M31,155v-0.5h-0.5v0.5H31z M77.4,206v0.5h0.5V206H77.4z M31,206h-0.5v0.5H31V206z M31,282.5V282h-0.5v0.5H31z M77.4,282.5h0.5V282
	h-0.5V282.5z M31,333.6h-0.5v0.5H31V333.6z M77.4,333.6v0.5h0.5v-0.5H77.4z M1254,6.7h90.8v-1H1254V6.7z M1254.5,97V6.2h-1V97
	H1254.5z M1344.8,96.5H1254v1h90.8V96.5z M1344.3,6.2V97h1V6.2H1344.3z M406.1,155.5H1019v-1H406.1V155.5z M406.6,206v-51h-1v51
	H406.6z M1019,205.5H406.1v1H1019V205.5z M1018.5,155v51h1v-51H1018.5z M1344.8,254.4H1254v1h90.8V254.4z M1345.3,345.7v-90.8h-1
	v90.8H1345.3z M1254,346.2h90.8v-1H1254V346.2z M1253.5,254.9v90.8h1v-90.8H1253.5z M1019,27H406.1v1H1019V27z M1019.5,78.5v-51h-1
	v51H1019.5z M406.1,79H1019v-1H406.1V79z M405.6,27.5v51h1v-51H405.6z M406.1,283H1019v-1H406.1V283z M406.6,333.6v-51h-1v51H406.6z
	 M1019,333.1H406.1v1H1019V333.1z M1018.5,282.5v51h1v-51H1018.5z M31,28h46.4v-1H31V28z M31.5,78.5v-51h-1v51H31.5z M77.4,78H31v1
	h46.4V78z M76.9,27.5v51h1v-51H76.9z M77.4,154.5H31v1h46.4V154.5z M77.9,206v-51h-1v51H77.9z M31,206.5h46.4v-1H31V206.5z
	 M30.5,155v51h1v-51H30.5z M31,283h46.4v-1H31V283z M31.5,333.6v-51h-1v51H31.5z M77.4,333.1H31v1h46.4V333.1z M76.9,282.5v51h1v-51
	H76.9z"/>
<linearGradient id="SVGID_00000014595030106022370680000011278196426884924338_" gradientUnits="userSpaceOnUse" x1="697.91" y1="271.7823" x2="697.91" y2="-67.9816" gradientTransform="matrix(1 0 0 -1 0 267.8746)">
	<stop  offset="0" style="stop-color:#FFFFFF;stop-opacity:0.5"/>
	<stop  offset="1" style="stop-color:#FFFFFF"/>
</linearGradient>
<path style="opacity:0.1;fill:url(#SVGID_00000014595030106022370680000011278196426884924338_);fill-opacity:0.6;enable-background:new    ;" d="
	M1264-3.8v-0.5h-0.5v0.5H1264z M1354.8-3.8h0.5v-0.5h-0.5V-3.8z M1264,87h-0.5v0.5h0.5V87z M1354.8,87v0.5h0.5V87H1354.8z
	 M416.1,145v-0.5h-0.5v0.5H416.1z M1029,145h0.5v-0.5h-0.5V145z M416.1,196h-0.5v0.5h0.5V196z M1029,196v0.5h0.5V196H1029z
	 M1354.8,244.9h0.5v-0.5h-0.5V244.9z M1264,244.9v-0.5h-0.5v0.5H1264z M1354.8,335.7v0.5h0.5v-0.5H1354.8z M1264,335.7h-0.5v0.5h0.5
	V335.7z M1029,17.5h0.5V17h-0.5V17.5z M416.1,17.5V17h-0.5v0.5H416.1z M1029,68.5V69h0.5v-0.5H1029z M416.1,68.5h-0.5V69h0.5V68.5z
	 M416.1,272.5V272h-0.5v0.5H416.1z M1029,272.5h0.5V272h-0.5V272.5z M416.1,323.6h-0.5v0.5h0.5V323.6z M1029,323.6v0.5h0.5v-0.5
	H1029z M41,17.5V17h-0.5v0.5H41z M87.4,17.5h0.5V17h-0.5V17.5z M41,68.5h-0.5V69H41V68.5z M87.4,68.5V69h0.5v-0.5H87.4z M87.4,145
	h0.5v-0.5h-0.5V145z M41,145v-0.5h-0.5v0.5H41z M87.4,196v0.5h0.5V196H87.4z M41,196h-0.5v0.5H41V196z M41,272.5V272h-0.5v0.5H41z
	 M87.4,272.5h0.5V272h-0.5V272.5z M41,323.6h-0.5v0.5H41V323.6z M87.4,323.6v0.5h0.5v-0.5H87.4z M1264-3.3h90.8v-1H1264V-3.3z
	 M1264.5,87V-3.8h-1V87H1264.5z M1354.8,86.5H1264v1h90.8V86.5z M1354.3-3.8V87h1V-3.8H1354.3z M416.1,145.5H1029v-1H416.1V145.5z
	 M416.6,196v-51h-1v51H416.6z M1029,195.5H416.1v1H1029V195.5z M1028.5,145v51h1v-51H1028.5z M1354.8,244.4H1264v1h90.8V244.4z
	 M1355.3,335.7v-90.8h-1v90.8H1355.3z M1264,336.2h90.8v-1H1264V336.2z M1263.5,244.9v90.8h1v-90.8H1263.5z M1029,17H416.1v1H1029
	V17z M1029.5,68.5v-51h-1v51H1029.5z M416.1,69H1029v-1H416.1V69z M415.6,17.5v51h1v-51H415.6z M416.1,273H1029v-1H416.1V273z
	 M416.6,323.6v-51h-1v51H416.6z M1029,323.1H416.1v1H1029V323.1z M1028.5,272.5v51h1v-51H1028.5z M41,18h46.4v-1H41V18z M41.5,68.5
	v-51h-1v51H41.5z M87.4,68H41v1h46.4V68z M86.9,17.5v51h1v-51H86.9z M87.4,144.5H41v1h46.4V144.5z M87.9,196v-51h-1v51H87.9z
	 M41,196.5h46.4v-1H41V196.5z M40.5,145v51h1v-51H40.5z M41,273h46.4v-1H41V273z M41.5,323.6v-51h-1v51H41.5z M87.4,323.1H41v1h46.4
	V323.1z M86.9,272.5v51h1v-51H86.9z"/>
</svg>
